<svg version="1.1" id="Layer_1" xmlns="http://www.w3.org/2000/svg" xmlns:xlink="http://www.w3.org/1999/xlink" x="0px" y="0px"
	 width="100%" viewBox="0 0 496 496" enable-background="new 0 0 496 496" xml:space="preserve">
<path fill="#000000" opacity="1.000000" stroke="none" 
	d="
M497.000000,336.531342 
	C494.696472,336.324432 493.931580,334.623230 494.087677,332.426178 
	C494.844788,321.770813 490.431458,313.877136 481.382935,308.412323 
	C481.179108,308.289215 481.163452,307.854614 480.920166,307.174164 
	C486.023499,306.226929 491.067688,306.794830 496.541656,306.899475 
	C497.000000,316.687561 497.000000,326.375122 497.000000,336.531342 
z"/>
<path fill="#000000" opacity="1.000000" stroke="none" 
	d="
M497.000000,269.555847 
	C493.162689,267.540741 492.933441,265.131500 496.613953,261.942749 
	C497.000000,264.370575 497.000000,266.741119 497.000000,269.555847 
z"/>
<path fill="#000000" opacity="1.000000" stroke="none" 
	d="
M272.927155,269.943909 
	C265.941925,269.942474 259.443817,269.947083 252.945709,269.937347 
	C250.266785,269.933319 248.202225,269.506348 247.650986,266.088837 
	C243.160782,238.251251 227.359131,219.477158 201.667984,208.345169 
	C182.037643,199.839355 161.343948,197.438324 140.324158,196.406845 
	C139.326096,196.357849 138.326431,196.341675 137.327652,196.306656 
	C135.822540,196.253860 134.807938,195.687347 134.624924,194.009094 
	C134.406006,192.001404 135.623383,191.347168 137.246460,191.081909 
	C141.018021,190.465500 144.853378,190.870560 148.646210,189.940170 
	C174.134903,183.687637 190.004349,164.410309 191.851898,138.355438 
	C192.637863,127.271294 192.461578,116.394737 189.564926,105.715950 
	C184.018921,85.270012 169.847275,74.075279 149.774536,69.365715 
	C141.437088,67.409538 132.977890,67.211143 124.491371,66.921646 
	C120.886475,66.798676 119.578072,67.804779 119.607101,71.679802 
	C119.836746,102.324867 120.020676,132.972504 119.869469,163.617599 
	C119.705994,196.751724 119.460152,229.883804 119.875839,263.017548 
	C119.959938,269.720459 119.643456,269.939667 112.800964,269.960052 
	C106.802757,269.977936 100.793549,269.756256 94.809753,270.053833 
	C90.094315,270.288361 88.518768,268.733948 88.532860,263.812866 
	C88.698357,205.996750 88.681404,148.179947 88.603943,90.363457 
	C88.591408,81.004929 86.562943,72.309151 79.515961,65.275826 
	C73.303871,59.075764 65.749680,56.897057 57.383030,56.383007 
	C55.332611,56.257023 52.684315,56.856762 52.798233,53.411213 
	C52.912582,49.952560 55.641548,50.719078 57.611496,50.717216 
	C84.936722,50.691395 112.285240,50.046410 139.580307,50.967575 
	C163.562057,51.776920 186.246292,57.629353 205.247879,73.802643 
	C224.564606,90.244148 230.569260,111.351974 227.898056,135.667114 
	C225.930130,153.580276 218.956146,169.005035 204.478287,180.395462 
	C201.523071,182.720490 198.285599,184.686707 194.632828,187.192444 
	C203.388596,189.523209 211.727234,190.908707 219.693985,193.723831 
	C252.709778,205.390228 274.784241,227.102524 282.664337,261.946289 
	C284.389832,269.575836 284.103699,269.952484 276.413239,269.952454 
	C275.413574,269.952454 274.413940,269.947083 272.927155,269.943909 
z"/>
<path fill="#000000" opacity="1.000000" stroke="none" 
	d="
M119.699310,313.735413 
	C119.580528,329.663696 119.512596,345.154541 119.425438,360.645264 
	C119.412811,362.890533 119.969307,364.473236 122.621155,364.784515 
	C151.350494,368.157196 179.904358,369.145477 206.572723,355.324219 
	C224.616852,345.972626 236.978577,331.225098 243.777039,312.046539 
	C245.148788,308.176849 246.917038,306.449799 251.236954,306.588409 
	C261.031830,306.902679 270.843658,306.687378 280.741241,306.687378 
	C282.060089,310.039185 280.505157,312.626099 279.586456,315.143280 
	C273.042969,333.072266 261.489624,347.219330 246.189194,358.361664 
	C222.510666,375.605286 195.431747,382.410400 166.666595,384.428772 
	C145.883423,385.887115 125.392952,384.582489 105.314293,379.170654 
	C69.625252,369.551208 43.369541,349.108185 31.265045,312.980530 
	C30.696018,311.282196 29.764547,309.622955 30.245939,307.733063 
	C38.219913,304.945648 41.320881,306.101135 44.846317,313.167389 
	C53.331799,330.175476 65.460258,343.739624 82.326820,352.819946 
	C83.641914,353.527924 85.007301,354.152374 86.387306,354.723907 
	C86.797371,354.893738 87.337265,354.750122 87.843834,354.750122 
	C89.134926,353.100952 88.610733,351.200226 88.618492,349.441620 
	C88.673645,336.945465 88.801460,324.446198 88.570808,311.954102 
	C88.492661,307.721069 90.008644,306.453186 94.060806,306.616486 
	C100.548424,306.877899 107.073471,306.996002 113.546349,306.592102 
	C118.849327,306.261200 120.473976,308.477478 119.699310,313.735413 
z"/>
<path fill="#000000" opacity="1.000000" stroke="none" 
	d="
M450.155121,152.000046 
	C450.149506,159.497101 450.176941,166.494415 450.119720,173.491028 
	C450.102386,175.608795 450.414917,178.158051 447.123230,178.159958 
	C443.827484,178.161880 444.208588,175.560562 444.096985,173.479279 
	C443.856720,168.998215 443.998474,164.485977 441.673065,160.368515 
	C436.918335,151.949554 429.398712,148.406830 420.105652,148.381866 
	C389.785187,148.300400 359.463776,148.451721 329.144257,148.262711 
	C324.441040,148.233383 324.100464,150.473953 324.106415,154.092010 
	C324.165649,190.076904 324.137878,226.061935 324.132660,262.046936 
	C324.131500,269.966248 324.119629,269.989502 316.000641,270.001373 
	C310.003204,270.010132 304.000610,269.814972 298.010040,270.009949 
	C293.881256,270.144348 292.582764,268.513855 292.599396,264.427795 
	C292.729156,232.608261 292.674652,200.787933 292.667999,168.967850 
	C292.664337,151.400726 282.276367,140.400528 264.723999,139.024429 
	C261.848389,138.798996 256.690491,140.561874 257.163727,135.307678 
	C257.568909,130.808990 262.314606,132.899811 265.050873,132.889755 
	C309.365082,132.726669 353.680511,132.604233 397.994354,132.791855 
	C413.801941,132.858780 429.070251,130.041138 444.240112,126.110657 
	C445.808777,125.704208 447.324829,124.821678 449.628052,125.460403 
	C450.776978,134.016113 449.869354,142.783340 450.155121,152.000046 
z"/>
<path fill="#000000" opacity="1.000000" stroke="none" 
	d="
M292.671936,414.989166 
	C292.670807,380.687958 292.765289,346.883942 292.564209,313.081665 
	C292.534637,308.109344 293.809387,306.223907 298.970886,306.584442 
	C305.102264,307.012726 311.286316,306.679413 317.447540,306.690186 
	C324.118103,306.701843 324.160400,306.708893 324.161682,313.303680 
	C324.168304,347.939728 324.149628,382.575775 324.146790,417.211823 
	C324.146515,420.375214 324.127533,423.540955 324.234741,426.701599 
	C324.761200,442.223755 336.789734,454.160706 352.417297,454.711487 
	C353.415649,454.746704 354.414917,454.755951 355.413757,454.776031 
	C357.630157,454.820557 360.056305,454.717255 359.965698,457.919800 
	C359.875702,461.102417 357.310272,460.925995 355.199951,460.928345 
	C323.894440,460.963196 292.588898,460.959351 261.283386,460.921661 
	C259.119110,460.919067 256.712921,460.903961 256.813385,457.650055 
	C256.893188,455.064575 258.788025,454.692719 260.669098,454.853455 
	C279.108734,456.428833 294.477234,440.344177 292.685730,419.482208 
	C292.572174,418.159821 292.671722,416.819092 292.671936,414.989166 
z"/>
<path fill="#000000" opacity="1.000000" stroke="none" 
	d="
M151.203369,281.352661 
	C151.409943,286.226105 149.287140,290.288696 148.138199,294.598633 
	C147.656418,296.405884 146.495010,297.415955 144.483612,297.240936 
	C142.628296,297.079529 142.035324,295.844879 141.668564,294.268707 
	C141.301315,292.690582 140.801987,291.143127 140.106461,288.683807 
	C139.176926,291.471802 138.580948,293.457336 137.848175,295.391022 
	C137.315872,296.795685 136.168701,297.337677 134.667786,297.266357 
	C133.369949,297.204651 132.315170,296.700806 131.974335,295.453125 
	C130.880524,291.449097 129.847565,287.426178 128.909668,283.383057 
	C128.625473,282.157990 129.028122,281.026337 130.579468,280.880585 
	C131.866119,280.759644 132.836349,281.160522 133.243759,282.541504 
	C133.741730,284.229462 134.315964,285.894897 134.913834,287.745331 
	C137.592880,285.652100 135.815872,280.048126 140.925400,280.791473 
	C144.739075,281.346283 143.354492,285.335693 144.870453,287.553955 
	C147.777664,286.245850 145.274460,279.750031 151.203369,281.352661 
z"/>
<path fill="#000000" opacity="1.000000" stroke="none" 
	d="
M48.539268,283.517334 
	C49.366398,286.581390 48.820942,289.345947 49.020512,292.092712 
	C49.360325,296.769745 45.490623,297.282990 41.754219,297.363647 
	C38.404514,297.435974 35.209316,297.556732 35.667175,292.689911 
	C35.806053,291.213715 35.512939,289.690308 35.708897,288.227539 
	C36.038376,285.768066 34.270714,282.072693 37.374458,281.162262 
	C40.968624,280.107971 45.288540,279.316986 48.539268,283.517334 
z"/>
<path fill="#000000" opacity="1.000000" stroke="none" 
	d="
M330.834656,287.061035 
	C332.711060,286.633820 331.761475,285.231628 331.936188,284.227814 
	C332.230804,282.534912 332.296051,280.732391 334.662506,280.868988 
	C336.687469,280.985870 336.900452,282.617767 336.930939,284.138153 
	C336.994293,287.296967 336.995300,290.460144 336.897369,293.617645 
	C336.852417,295.067841 336.905792,296.749176 334.894073,297.134705 
	C333.154022,297.468140 332.107574,296.451233 331.164948,295.193268 
	C329.901764,293.507538 328.593140,291.855865 327.263885,290.137756 
	C326.809265,290.665222 326.522339,290.866211 326.421112,291.136658 
	C325.687317,293.097321 327.614868,296.767578 324.268524,296.840851 
	C320.407196,296.925415 322.116425,293.128479 321.832703,290.962006 
	C321.532593,288.670502 321.690125,286.311890 321.739410,283.984558 
	C321.767029,282.680511 321.702179,281.227295 323.486511,280.854218 
	C324.931274,280.552124 326.142914,280.983154 327.036438,282.119659 
	C328.268555,283.686707 329.425171,285.313141 330.834656,287.061035 
z"/>
<path fill="#000000" opacity="1.000000" stroke="none" 
	d="
M455.096008,281.341980 
	C459.942139,284.679413 457.963257,288.022919 455.687531,291.143158 
	C455.934082,291.672333 456.091766,291.961975 456.207703,292.267487 
	C456.882721,294.046478 461.679291,293.595978 459.336761,296.466370 
	C457.505798,298.709930 454.449677,297.420837 452.461914,295.178131 
	C451.947388,294.597626 451.483978,293.971802 450.884155,293.226440 
	C449.651764,294.866058 450.059998,297.902832 447.103790,297.121094 
	C444.359406,296.395355 445.365112,293.987274 445.258301,292.136566 
	C445.201294,291.148407 445.273895,290.153381 445.235168,289.163513 
	C444.879852,280.078369 445.289856,279.728363 455.096008,281.341980 
z"/>
<path fill="#000000" opacity="1.000000" stroke="none" 
	d="
M297.556152,280.751038 
	C303.222107,283.523834 303.553558,285.331451 300.080658,291.100342 
	C299.595734,294.211090 306.761292,293.238556 303.370361,296.615784 
	C300.491699,299.482788 297.393463,296.311707 295.092224,293.191742 
	C293.807007,294.611847 294.222412,298.084900 291.197937,296.995880 
	C288.917816,296.174896 289.871368,293.909241 289.689880,292.224365 
	C289.548981,290.915955 289.656952,289.580597 289.656525,288.257233 
	C289.654022,280.615204 289.654236,280.615204 297.556152,280.751038 
z"/>
<path fill="#000000" opacity="1.000000" stroke="none" 
	d="
M487.544983,290.797546 
	C485.802277,291.618683 483.862885,290.453491 482.695465,292.285370 
	C484.023376,293.905182 485.872894,292.581573 487.325592,293.220947 
	C488.295502,293.647827 489.080292,294.130493 489.073761,295.323792 
	C489.067078,296.543457 488.301453,296.939117 487.241669,297.247681 
	C480.192535,299.300293 477.082214,297.046906 477.070343,289.814117 
	C477.069244,289.151306 477.060913,288.488495 477.060028,287.825684 
	C477.051514,281.287628 481.620819,278.280975 487.642731,280.828278 
	C488.490601,281.186951 489.037598,281.642883 489.022217,282.607971 
	C489.007080,283.559631 488.514496,284.230621 487.617828,284.370483 
	C486.040314,284.616547 484.439301,284.712006 482.668945,284.888367 
	C483.075562,288.345062 490.958069,284.464661 487.544983,290.797546 
z"/>
<path fill="#000000" opacity="1.000000" stroke="none" 
	d="
M263.598267,292.908508 
	C267.023224,290.562317 265.216248,287.274017 265.702179,284.485382 
	C265.980133,282.890442 265.628143,280.878357 268.111145,280.934326 
	C270.629425,280.991089 270.213257,283.055878 270.291351,284.617493 
	C270.390747,286.605408 270.426849,288.609222 270.295441,290.593292 
	C270.011261,294.882935 267.678680,297.310486 263.353790,297.541595 
	C259.231293,297.761841 256.243561,296.309052 255.412262,291.802521 
	C254.893372,288.989563 254.955688,286.183411 255.159958,283.370941 
	C255.264206,281.935699 255.883881,280.794281 257.607635,280.839752 
	C259.297150,280.884277 259.900146,281.971680 259.975464,283.451599 
	C260.085114,285.606476 260.062958,287.769501 260.220215,289.920044 
	C260.353485,291.742615 261.057800,293.161072 263.598267,292.908508 
z"/>
<path fill="#000000" opacity="1.000000" stroke="none" 
	d="
M80.896759,297.234192 
	C76.170700,292.127136 71.401878,295.586212 65.995880,297.722961 
	C67.583092,291.452637 69.855774,286.874817 72.138474,282.350311 
	C73.255249,280.136780 75.779251,279.873291 76.959816,281.939240 
	C79.491425,286.369385 81.575882,291.090546 82.688866,296.133179 
	C82.860329,296.910034 81.902039,297.029175 80.896759,297.234192 
z"/>
<path fill="#000000" opacity="1.000000" stroke="none" 
	d="
M169.545471,292.588013 
	C170.959625,289.350250 172.216446,286.452789 173.508102,283.570923 
	C174.129501,282.184509 174.819977,280.884857 176.651306,280.780548 
	C178.545776,280.672638 179.275513,281.941193 179.883270,283.350800 
	C181.330933,286.708496 182.764847,290.072784 184.142044,293.459717 
	C184.509659,294.363770 184.652817,295.359070 185.303360,297.878387 
	C179.466812,294.943817 174.158554,292.435730 169.663696,297.603455 
	C167.707230,295.526611 168.919708,294.255219 169.545471,292.588013 
z"/>
<path fill="#000000" opacity="1.000000" stroke="none" 
	d="
M425.588440,292.032593 
	C423.963989,297.350372 420.186981,298.069519 415.943542,297.231842 
	C411.736389,296.401367 410.801758,293.002411 410.709015,289.281677 
	C410.659454,287.294403 410.720459,285.302856 410.781616,283.314789 
	C410.829254,281.766052 411.530273,280.801575 413.232178,280.905670 
	C414.700439,280.995422 415.194397,281.968994 415.240021,283.249786 
	C415.310852,285.237549 415.330231,287.227386 415.355957,289.216553 
	C415.381653,291.204773 415.892944,293.095001 418.167908,293.197235 
	C420.453522,293.299957 421.096436,291.274994 421.421112,289.456268 
	C421.680420,288.003601 421.484436,286.475769 421.629944,284.994995 
	C421.793152,283.334656 421.041046,280.861023 423.932648,281.000122 
	C426.622314,281.129486 426.108978,283.522675 426.134216,285.215332 
	C426.166107,287.353760 425.877899,289.496918 425.588440,292.032593 
z"/>
<path fill="#000000" opacity="1.000000" stroke="none" 
	d="
M230.588989,292.777893 
	C230.063965,294.764069 230.769089,297.262299 227.917618,297.061707 
	C225.225571,296.872345 225.859573,294.526398 225.736221,292.837372 
	C225.616119,291.192963 225.700333,289.533478 225.698792,287.880615 
	C225.691864,280.488678 226.544830,279.755920 234.063507,280.691315 
	C235.340271,280.850159 236.941940,280.680939 236.854309,282.633270 
	C236.784027,284.199707 235.415848,284.138275 234.283936,284.350861 
	C233.104309,284.572357 231.544922,283.876526 230.930206,285.586029 
	C231.857300,288.192780 236.638672,285.623138 236.291260,289.354828 
	C236.000702,292.475891 232.025726,290.296906 230.588989,292.777893 
z"/>
<path fill="#000000" opacity="1.000000" stroke="none" 
	d="
M391.115326,284.368652 
	C388.841797,284.526398 388.204834,285.672180 388.222321,287.425323 
	C388.238953,289.090576 388.281403,290.764313 388.143158,292.420135 
	C387.989166,294.264374 388.789093,297.000702 385.806824,297.050018 
	C382.533783,297.104156 383.936768,294.255707 383.636932,292.511658 
	C383.087646,289.316864 385.558411,284.714691 379.598053,284.022186 
	C378.719482,283.920135 378.465729,282.897614 378.707306,281.992950 
	C378.966766,281.021149 379.779510,280.749756 380.628662,280.742645 
	C384.124176,280.713379 387.668427,280.388214 391.100769,280.858093 
	C393.848633,281.234253 393.740845,282.876251 391.115326,284.368652 
z"/>
<path fill="#000000" opacity="1.000000" stroke="none" 
	d="
M107.850433,296.665039 
	C106.555168,297.082062 105.583061,297.419067 104.606087,297.433868 
	C102.339119,297.468109 99.577637,297.044647 99.662460,294.433105 
	C99.779472,290.830322 102.969009,293.169891 105.153847,292.603668 
	C106.239052,289.923615 105.419327,286.901947 105.710892,284.004181 
	C105.864563,282.476990 105.892334,280.872528 108.057480,280.910278 
	C110.232849,280.948212 110.387329,282.617859 110.250404,284.092804 
	C109.864258,288.252533 111.888763,292.841949 107.850433,296.665039 
z"/>
<path fill="#000000" opacity="1.000000" stroke="none" 
	d="
M357.976196,280.882629 
	C360.705994,280.991516 360.902435,282.708527 360.904053,284.382965 
	C360.907349,287.833313 360.830261,291.286438 360.666382,294.732727 
	C360.611237,295.891998 360.189758,297.025391 358.687836,297.137207 
	C357.626343,297.216248 356.289856,296.939026 356.273376,295.950623 
	C356.189331,290.912384 354.012360,285.660400 357.976196,280.882629 
z"/>
</svg>